<?xml version="1.0" encoding="UTF-8"?>
<svg xmlns="http://www.w3.org/2000/svg" xmlns:xlink="http://www.w3.org/1999/xlink"
     width="400" height="400.0" viewBox="-1.05 -1.05 2.1 2.1">
<defs>
</defs>
<circle cx="0" cy="0" r="1" fill="#ddd" />
<path d="M-0.4340579696656434,-0.8934644575785649 A0.5154062274016911,0.5154062274016911,0,0,1,-0.4739886288929889,-0.42475694820274945 A2.733744539183573,2.733744539183573,0,0,0,-0.4478840395591578,-0.408634814810239 A0.4901639061943107,0.4901639061943107,0,0,0,-0.433454567326455,-0.8937474483706528 A0.006715707766136929,0.006715707766136929,0,0,1,-0.43405796966564597,-0.893464457578571 Z" fill="white" />
<path d="M0.022485794950291904,-0.010914609520622065 A20.016663889552444,20.016663889552444,0,0,0,-0.43345668568371565,-0.8937513738208764 A0.0067151065124714995,0.0067151065124714995,0,0,1,-0.43405625198087827,-0.8934603442162029 A20.01666388954794,20.01666388954794,0,0,0,-0.022485794950295457,0.010914609520618512 A1235473008877.5007,1235473008877.5007,0,0,1,0.0224609375,-0.0107421875 Z" fill="white" />
<path d="M0.016759252207044995,-0.018543655006361348 A20.01666388955066,20.01666388955066,0,0,0,-0.4510537271387083,-0.42831829744386773 A0.49359294595169523,0.49359294595169523,0,0,1,-0.4716165665438993,-0.4055660770482097 A20.01666388955095,20.01666388955095,0,0,0,-0.0167592522070521,0.018543655006348914 A2740248646451.8564,2740248646451.8564,0,0,1,0.016845703125,-0.018798828125 Z" fill="white" />
<path d="M0.28902710548608496,0.022890500375002176 A13.392441565277005,13.392441565277005,0,0,0,0.9777111181842529,0.02215144990134199 A0.022313551329711967,0.022313551329711967,0,0,1,0.9777592767408363,0.01997161824924439 A39.60746422769057,39.60746422769057,0,0,0,0.29081772365458947,-0.02286458204481079 A1.5819149098058158,1.5819149098058158,0,0,0,0.28902710548610067,0.022890500375001725 Z" fill="white" />
<path d="M-0.43405428913955035,-0.8934558236637399 A0.4446937286288867,0.4446937286288867,0,0,0,0.316979333145746,-0.7923183859110534 A0.16688588329198692,0.16688588329198692,0,0,1,0.3069525431337597,-0.8011996072494683 A0.46537126868346523,0.46537126868346523,0,0,1,-0.4334590851804122,-0.8937556743959044 A0.006715840434806901,0.006715840434806901,0,0,1,-0.4340542891395476,-0.8934558236637338 Z" fill="white" />
<path d="M0.02327531685340034,0.009110395211399336 A20.016663889549157,20.016663889549157,0,0,0,0.31812787318128244,-0.794383635901033 A0.15664782973318334,0.15664782973318334,0,0,1,0.3056561822495428,-0.7992652894595268 A20.01666388954942,20.01666388954942,0,0,0,-0.023275316853407446,-0.00911039521139756 A4394464568146.6,4394464568146.6,0,0,1,0.022705078125,0.0087890625 Z" fill="white" />
<circle cx="-0.4604514511250531" cy="-0.41614352703704244" r="0.03068531447244894" fill="green" />
<circle cx="-0.4337383784695549" cy="-0.8935685900547242" r="0.0006681064755288637" fill="green" />
<circle cx="-4.340422094992473e-18" cy="3.925734603010768e-17" r="0.04995837495787998" fill="green" />
<circle cx="0.9776018054853953" cy="0.02105863125160924" r="0.002185520805875138" fill="green" />
<circle cx="0.2890944983846813" cy="-7.188220064920381e-17" r="0.04577350250719964" fill="green" />
<circle cx="0.3116308352658867" cy="-0.7961571659405278" r="0.013415310092024879" fill="green" />
</svg>